<?xml version="1.0" encoding="UTF-8"?>
<svg version="1.1" xmlns="http://www.w3.org/2000/svg" width="106" height="106">
<path d="M0 0 C2.16426018 1.57990993 4.04734726 3.15011846 6 5 C6 5.66 6 6.32 6 7 C6.66 7 7.32 7 8 7 C19.62608413 21.61313849 21.94006369 36.85259218 20 55 C18.44516877 63.26140958 14.0151295 70.38056832 9 77 C8.2575 78.03125 7.515 79.0625 6.75 80.125 C-2.81464175 90.12439819 -15.69472696 95.99304974 -29.46386719 96.34350586 C-46.90056943 96.53214512 -59.31660155 92.29120874 -72.25 80.1875 C-82.72548334 69.16289858 -86.62720171 55.9842921 -86.47485352 41.03198242 C-85.9046383 25.30762663 -79.16368113 12.78798033 -68 2 C-48.476462 -14.9841589 -20.70025722 -14.27730507 0 0 Z M-69 24 C-68.99077298 26.54713404 -68.99077298 26.54713404 -68 29 C-66.19642718 30.29517551 -66.19642718 30.29517551 -64 31 C-61.96886642 30.55246209 -59.93963002 30.09428251 -57.921875 29.58984375 C-39.9619509 25.9642441 -19.15092661 27.67886089 -2.75 36.1640625 C-0.92764781 37.20416304 -0.92764781 37.20416304 1.625 36.875 C4.15585096 36.21503486 4.15585096 36.21503486 5.3125 33.9375 C5.539375 33.298125 5.76625 32.65875 6 32 C-1.05821198 22.85046596 -15.22930745 20.73871042 -26 19 C-30.8853312 18.61669593 -35.72677013 18.57810205 -40.625 18.625 C-41.84445313 18.61339844 -43.06390625 18.60179688 -44.3203125 18.58984375 C-57.60355539 18.40437975 -57.60355539 18.40437975 -69 24 Z M-65 41 C-65.04063832 42.66617115 -65.042721 44.33388095 -65 46 C-61.4890713 46.87926936 -59.16709661 47.00810974 -55.6875 46.0625 C-40.60997181 42.7964479 -23.98410892 44.8214752 -10.3671875 52.01171875 C-7.73488015 53.11068535 -5.82421933 53.18593615 -3 53 C-2.67 51.35 -2.34 49.7 -2 48 C-14.37541035 39.16042118 -51.68300741 27.68300741 -65 41 Z M-63 58 C-62.6814823 60.10820797 -62.6814823 60.10820797 -62 62 C-60.12248047 61.76216797 -60.12248047 61.76216797 -58.20703125 61.51953125 C-44.8136495 60.0453428 -30.42193558 59.14454215 -18 65 C-15.67487113 66.02603552 -13.34930128 67.02963643 -11 68 C-10.34 67.67 -9.68 67.34 -9 67 C-9.36532553 63.24553721 -9.36532553 63.24553721 -11.79296875 60.5234375 C-23.66447878 54.82976059 -52.15402404 47.15402404 -63 58 Z " fill="#1DD65F" transform="translate(86,10)"/>
</svg>
